HIERARCHY
ROOT Hips
{
  OFFSET 90.7885 88.945 -76.2838
  CHANNELS 6 Xposition Yposition Zposition Zrotation Xrotation Yrotation
  JOINT LeftUpLeg
  {
    OFFSET 8.64259 1.95398 -2.38835
    CHANNELS 3 Zrotation Xrotation Yrotation
    JOINT LeftLeg
    {
      OFFSET 43.7702 0 0
      CHANNELS 3 Zrotation Xrotation Yrotation
      JOINT LeftFoot
      {
        OFFSET 40.6238 0 0
        CHANNELS 3 Zrotation Xrotation Yrotation
        JOINT LeftToeBase
        {
          OFFSET 12.7242 0 0
          CHANNELS 3 Zrotation Xrotation Yrotation
          End Site
          {
            OFFSET 0 0 0
          }
        }
      }
    }
  }
  JOINT RightUpLeg
  {
    OFFSET -8.2249 1.95398 -2.59336
    CHANNELS 3 Zrotation Xrotation Yrotation
    JOINT RightLeg
    {
      OFFSET 43.5653 0 0
      CHANNELS 3 Zrotation Xrotation Yrotation
      JOINT RightFoot
      {
        OFFSET 40.6238 0 0
        CHANNELS 3 Zrotation Xrotation Yrotation
        JOINT RightToeBase
        {
          OFFSET 12.7242 0 0
          CHANNELS 3 Zrotation Xrotation Yrotation
          End Site
          {
            OFFSET 0 0 0
          }
        }
      }
    }
  }
  JOINT Spine
  {
    OFFSET 0.165834 0.87714 6.61349
    CHANNELS 3 Zrotation Xrotation Yrotation
    JOINT Spine1
    {
      OFFSET 7.38963 1.71661e-005 0
      CHANNELS 3 Zrotation Xrotation Yrotation
      JOINT Spine2
      {
        OFFSET 11.9445 1.14441e-005 0
        CHANNELS 3 Zrotation Xrotation Yrotation
        JOINT Spine3
        {
          OFFSET 14.7254 4.19617e-005 0
          CHANNELS 3 Zrotation Xrotation Yrotation
          JOINT Spine4
          {
            OFFSET 10.9679 0 0
            CHANNELS 3 Zrotation Xrotation Yrotation
            JOINT RightShoulder
            {
              OFFSET 2.46616 -1.6653 3.69651
              CHANNELS 3 Zrotation Xrotation Yrotation
              JOINT RightArm
              {
                OFFSET 13.0012 0 0
                CHANNELS 3 Zrotation Xrotation Yrotation
                JOINT RightForeArm
                {
                  OFFSET 28.7848 1.52588e-005 0
                  CHANNELS 3 Zrotation Xrotation Yrotation
                  JOINT RightHand
                  {
                    OFFSET 26.5688 1.52588e-005 0
                    CHANNELS 3 Zrotation Xrotation Yrotation
                    End Site
                    {
                      OFFSET 0 0 0
                    }
                  }
                }
              }
            }
            JOINT LeftShoulder
            {
              OFFSET 2.38034 -1.29275 -3.7523
              CHANNELS 3 Zrotation Xrotation Yrotation
              JOINT LeftArm
              {
                OFFSET 16.3182 6.10352e-005 0
                CHANNELS 3 Zrotation Xrotation Yrotation
                JOINT LeftForeArm
                {
                  OFFSET 27.0901 0 0
                  CHANNELS 3 Zrotation Xrotation Yrotation
                  JOINT LeftHand
                  {
                    OFFSET 24.5451 1.52588e-005 0
                    CHANNELS 3 Zrotation Xrotation Yrotation
                    End Site
                    {
                      OFFSET 0 0 0
                    }
                  }
                }
              }
            }
            JOINT Neck
            {
              OFFSET 5.0226 -0.0266342 0
              CHANNELS 3 Zrotation Xrotation Yrotation
              JOINT Head
              {
                OFFSET 6.69363 2.86102e-005 0
                CHANNELS 3 Zrotation Xrotation Yrotation
                End Site
                {
                  OFFSET 0 0 0
                }
              }
            }
          }
        }
      }
    }
  }
}
MOTION
Frames:	6
Frame Time:	0.0416667
-349.37 91.9076 329.604 -102.611 -39.7451 -81.7494 -171.67 20.9313 110.737 -39.6929 18.4053 0.00424628 73.3604 5.76086 0.534466 14.2448 -1.65592 4.10068 -175.394 3.58045 106.963 -9.31049 1.84527 -0.22341 55.1352 -3.77531 0.4875 25.0455 -0.711507 2.36224 -0.638855 12.7527 -90.5666 1.36569 -1.49081 -1.14959 -10.3048 -1.53995 -1.08287 -32.8398 -1.06991 -1.54445 -12.8271 -1.06992 -1.54445 91.8722 10.3212 -139.76 39.0295 2.19087 -58.4045 -0.0254364 1.5982 0.000330229 -22.1343 1.32111 -12.0926 -80.1951 -14.7608 90.8346 -49.5455 6.42787 -52.7483 173.397 23.9886 -179.986 38.4728 9.54356 21.1323 75.0298 -11.2249 -15.5402 -53.1413 6.70033 -3.82542 
-349.403 91.9273 329.547 -102.586 -39.8927 -81.5132 -171.661 21.1172 110.987 -39.7593 19.0256 0.10764 73.3116 5.83356 0.953046 13.9002 -1.3301 3.76571 -175.183 3.09752 107.26 -7.95881 0.797586 -0.159546 54.9904 -3.81254 -0.527863 23.4284 -0.210205 1.5846 -0.636913 12.7519 -90.5834 1.3664 -1.49324 -1.18266 -10.3042 -1.54388 -1.1158 -32.8391 -1.06919 -1.57674 -12.8265 -1.0692 -1.57673 91.9055 10.3758 -139.743 40.5195 3.00465 -58.5306 0.215009 -5.45953 0.000331605 -18.5441 0.239278 -8.90301 -80.1497 -14.6427 90.9345 -50.4629 5.95996 -52.3553 173.813 22.7021 -179.986 37.4996 9.20845 20.8998 75.1793 -11.1361 -15.3989 -53.2984 6.94073 -4.29231 
-349.511 91.8411 329.331 -102.37 -40.6244 -80.5946 -171.542 22.1923 112.023 -40.2819 20.9041 0.193943 73.4781 6.16569 1.41575 13.5453 -1.04012 3.47561 -174.843 3.63508 108.188 -8.07412 2.07503 -0.105783 54.8844 -3.83867 -0.489679 23.883 -0.197947 1.47625 -0.650434 12.7445 -90.6775 1.37154 -1.55606 -1.36815 -10.2991 -1.61477 -1.29835 -32.8326 -1.07301 -1.7725 -12.8199 -1.07302 -1.7725 91.7455 10.1074 -139.81 41.1696 3.14946 -58.6105 -0.878128 -4.59233 0.000331164 -19.4854 0.460602 -9.74614 -80.0696 -14.6624 91.1403 -50.7942 5.72716 -52.1486 173.735 20.5604 -179.986 33.3594 8.07404 20.6246 75.391 -10.9814 -15.0725 -53.5448 7.32589 -5.20954 
-349.7 91.8316 329.165 -102.225 -40.9606 -80.0279 -171.287 22.6263 112.988 -40.5308 22.0414 -0.0806373 73.2667 6.21204 1.38463 14.19 -1.29056 3.68989 -174.363 3.37144 108.835 -7.50985 2.99412 -0.0569378 54.4638 -3.87241 -0.489106 24.1731 -0.238372 1.50725 -0.643755 12.7349 -90.7144 1.3849 -1.55679 -1.43947 -10.286 -1.61863 -1.36957 -32.8178 -1.0523 -1.84073 -12.8051 -1.05232 -1.84075 91.5397 9.70885 -139.762 41.1266 3.05822 -58.1788 -0.95037 -4.60963 0.000331172 -19.7608 0.432802 -9.48257 -79.9631 -14.6501 91.4094 -50.0212 6.18814 -52.363 172.735 18.2115 -179.986 24.947 5.86694 19.8651 75.5455 -10.7009 -14.4769 -53.7079 7.83138 -6.66135 
-349.314 92.7691 332.746 -103.272 -38.2375 -90.4159 -175.362 11.5662 98.6933 -31.8705 7.37409 1.56536 72.4377 4.20422 -0.267401 13.0133 -0.5916 3.03475 178.762 3.45421 97.1902 -16.5604 -6.91594 -1.24346 60.5983 -3.43427 0.257169 24.1026 -0.159219 1.35324 -1.06053 12.7125 -89.5082 1.45396 -1.92928 0.901017 -10.2159 -1.88774 0.98508 -32.7622 -2.11086 0.279311 -12.7495 -2.11085 0.279315 91.3412 9.29691 -139.655 39.3732 2.47619 -57.2716 0.162858 -3.33372 0.00033066 -20.0061 0.325163 -8.39666 -79.8183 -14.6691 91.7791 -50.3313 6.19549 -52.2049 172.28 13.6932 -179.987 11.9292 2.53757 16.3523 75.9598 -10.1403 -13.4435 -54.0076 8.57136 -8.73421 
-349.216 93.2706 337.368 -103.547 -35.837 -101.828 175.51 4.99968 81.1976 -18.5372 -7.40716 5.284 67.7676 2.61331 -1.04191 14.0284 -1.09697 3.48708 170.6 8.04508 83.3208 -25.5621 -18.5727 -2.82975 66.4848 -3.75252 0.555257 24.8093 -0.120937 1.13459 -1.61457 12.6105 -88.1669 1.67092 -2.52087 3.50643 -10.0027 -2.3642 3.61383 -32.5337 -3.45777 2.58721 -12.5211 -3.4578 2.5872 90.864 8.40453 -139.646 38.8122 2.61172 -56.8986 0.330917 -3.38072 0.000330676 -19.688 0.311987 -8.38675 -79.7078 -14.6732 92.0603 -50.1431 6.53567 -52.0331 171.863 9.19424 -179.987 -3.35718 -0.200105 10.7372 76.2753 -9.47813 -12.1908 -54.2717 9.38429 -11.2216 
